<svg viewBox="0 0 512 512" height="512" width="512" xmlns="http://www.w3.org/2000/svg">
    <linearGradient id="a" gradientUnits="userSpaceOnUse" x1="28.984" x2="502.522" y1="124.552" y2="414.073">
        <stop offset="0" stop-color="var(--f-icon-background)" stop-opacity="0" />
        <stop offset="1" stop-color="var(--f-icon-background)" />
    </linearGradient>
    <path
        d="M408.229 154.262c-23.697-9.236-43.717-26.089-55.961-48.381-20.59-37.487-60.43-62.898-106.221-62.898-47.53 0-88.646 27.377-108.477 67.219-12.146 24.401-32.814 43.56-58.09 53.761C42.131 179.037 10.777 213.487.827 267.345a49.29 49.29 0 0 0-.016 17.896c15.448 83.572 82.399 120.435 143.334 110.66 34.126-5.474 68.672 5.909 93.967 29.462 51.434 47.892 133.884 62.907 213.923 11.57 9.377-6.014 21.957-18.634 27.966-28.015 68.966-107.67 17.879-219.714-71.772-254.656z"
        fill="url(#a)" />
    <path
        d="M456.001 103.769v254.25c0 8.28-6.72 15-15 15h-370c-8.28 0-15-6.72-15-15v-254.25c0-8.28 6.72-15 15-15h370c8.28 0 15 6.72 15 15z"
        fill="var(--f-icon-primary)" opacity=".1" />
    <path d="M312.711 466.726H199.29l22.682-89.905h68.057z" fill="var(--f-icon-white)" />
    <path
        d="M456.001 124.772v254.25c0 8.28-6.72 15-15 15h-370c-8.28 0-15-6.72-15-15v-254.25c0-8.28 6.72-15 15-15h370c8.28 0 15 6.72 15 15z"
        fill="var(--f-icon-white)" />
    <path d="M428.001 343.629h-214V189.693a3 3 0 0 1 3-3h208a3 3 0 0 1 3 3z" fill="var(--f-icon-white)" />
    <path d="M428.001 207.801h-214v-18.107a3 3 0 0 1 3-3h208a3 3 0 0 1 3 3z" fill="var(--f-icon-secondary)" />
    <path d="M428.001 343.629h-214V189.693a3 3 0 0 1 3-3h208a3 3 0 0 1 3 3z" fill="none" stroke="var(--f-icon-primary)"
        stroke-miterlimit="10" stroke-width="10" />
    <path
        d="M456.001 157.943v-33.171c0-8.284-6.716-15-15-15h-370c-8.284 0-15 6.716-15 15v33.171zm-400 185.686v35.39c0 8.284 6.716 15 15 15h370c8.284 0 15-6.716 15-15v-35.39z"
        fill="var(--f-icon-white)" />
    <g fill="var(--f-icon-primary)">
        <path
            d="M94.083 128.785a5 5 0 0 0-5 5v.145a5 5 0 1 0 10 0v-.145a5 5 0 0 0-5-5zm19.325 0a5 5 0 0 0-5 5v.145a5 5 0 1 0 10 0v-.145a5 5 0 0 0-5-5zm19.324 0a5 5 0 0 0-5 5v.145a5 5 0 1 0 10 0v-.145a5 5 0 0 0-5-5z" />
        <path
            d="M441.001 104.771h-370c-11.028 0-20 8.972-20 20v33.172a5 5 0 0 0 5 5h395v175.686h-390V185.483a5 5 0 1 0-10 0v193.535c0 11.028 8.972 20 20 20h140.214l-15.82 62.701h-15.328a5 5 0 1 0 0 10h19.223a5 5 0 0 0 4.848-3.776l17.39-68.925h68.944l15.818 62.701-79.46.006a5 5 0 1 0 0 10l105.104-.006a5 5 0 1 0 0-10h-15.331l-15.818-62.701h140.216c11.028 0 20-8.972 20-20V124.771c0-11.028-8.972-20-20-20zm-380 48.172v-28.172c0-5.514 4.486-10 10-10h370c5.514 0 10 4.486 10 10v28.172zm380 236.076h-370c-5.514 0-10-4.486-10-10v-30.39h390v30.39c0 5.513-4.486 10-10 10z" />
    </g>
    <circle cx="143.067" cy="226.332" fill="var(--f-icon-secondary)" transform="rotate(-80.8 143.027 226.344)"
        r="40.143" />
    <path
        d="M159.68 220.525c0-9.16-7.453-16.612-16.613-16.612s-16.613 7.452-16.613 16.612c0 4.518 1.818 8.615 4.755 11.613-2.936 2.998-4.755 7.096-4.755 11.613a5 5 0 1 0 10 0c0-3.646 2.966-6.613 6.613-6.613s6.613 2.967 6.613 6.613a5 5 0 1 0 10 0c0-4.518-1.818-8.615-4.755-11.613 2.937-2.997 4.755-7.095 4.755-11.613zm-16.613-6.612c3.646 0 6.613 2.966 6.613 6.612s-2.967 6.613-6.613 6.613-6.613-2.967-6.613-6.613 2.966-6.612 6.613-6.612z"
        fill="var(--f-icon-primary)" />
    <path
        d="M385.328 256.31H256.674c-7.828 0-14.173-6.346-14.173-14.173 0-7.828 6.346-14.173 14.173-14.173h128.654c7.828 0 14.173 6.346 14.173 14.173s-6.346 14.173-14.173 14.173z"
        fill="var(--f-icon-secondary)" />
    <circle cx="304.09" cy="242.353" fill="var(--f-icon-primary)" r="5.59" />
    <circle cx="321.001" cy="242.353" fill="var(--f-icon-primary)" r="5.59" />
    <path d="M337.912 236.763a5.59 5.59 0 1 1 0 11.18 5.59 5.59 0 0 1 0-11.18z" fill="var(--f-icon-primary)" />
    <path
        d="M385.328 295.81H256.674c-7.828 0-14.173-6.346-14.173-14.173 0-7.828 6.346-14.173 14.173-14.173h128.654c7.828 0 14.173 6.346 14.173 14.173s-6.346 14.173-14.173 14.173z"
        fill="var(--f-icon-secondary)" />
    <circle cx="304.09" cy="281.853" fill="var(--f-icon-primary)" r="5.59" />
    <circle cx="321.001" cy="281.853" fill="var(--f-icon-primary)" r="5.59" />
    <path d="M337.912 276.263a5.59 5.59 0 1 1 0 11.18 5.59 5.59 0 0 1 0-11.18z" fill="var(--f-icon-primary)" />
    <path d="M340.895 325.64h-39.574a3 3 0 0 1-3-3v-11.5a3 3 0 0 1 3-3h39.574a3 3 0 0 1 3 3v11.5a3 3 0 0 1-3 3z"
        fill="var(--f-icon-secondary)" />
    <path
        d="M176.36 292.098h-66.586a5.123 5.123 0 0 1 0-10.246h66.586a5.123 5.123 0 0 1 0 10.246zm-18 19h-30.586a5.123 5.123 0 0 1 0-10.246h30.586a5.123 5.123 0 0 1 0 10.246z"
        fill="var(--f-icon-primary)" />
    <path
        d="M374.212 453.376a4.984 4.984 0 0 1-3.536-1.465l-10.994-10.994a4.998 4.998 0 0 1 0-7.07l10.994-10.994a5 5 0 0 1 7.071 0l10.994 10.994a4.998 4.998 0 0 1 0 7.07l-10.994 10.994a4.98 4.98 0 0 1-3.535 1.465zm-3.923-15.994 3.923 3.923 3.923-3.923-3.923-3.923zM131.454 95.439a4.984 4.984 0 0 1-3.536-1.465L116.924 82.98a4.998 4.998 0 0 1 0-7.07l10.994-10.994a5 5 0 0 1 7.071 0l10.994 10.994a4.998 4.998 0 0 1 0 7.07l-10.994 10.994a4.98 4.98 0 0 1-3.535 1.465zm-3.923-15.994 3.923 3.923 3.923-3.923-3.923-3.923zm53.951-7.182a4.984 4.984 0 0 1-3.536-1.465l-10.994-10.994a4.998 4.998 0 0 1 0-7.07l10.994-10.994a5 5 0 0 1 7.071 0l10.994 10.994a4.998 4.998 0 0 1 0 7.07l-10.994 10.994a4.982 4.982 0 0 1-3.535 1.465zm-3.922-15.994 3.923 3.923 3.923-3.923-3.923-3.923zm232.959 21.496a5 5 0 0 1-5-5c0-3.318-2.7-6.018-6.018-6.018a5 5 0 1 1 0-10 6.025 6.025 0 0 0 6.018-6.018 5 5 0 1 1 10 0c0 3.318 2.7 6.018 6.018 6.018a5 5 0 1 1 0 10 6.025 6.025 0 0 0-6.018 6.018 5 5 0 0 1-5 5z"
        fill="var(--f-icon-secondary)" />
</svg>